<svg xmlns="http://www.w3.org/2000/svg" xmlns:xlink="http://www.w3.org/1999/xlink" viewBox="0,0,256,256" width="25px" height="25px" fill-rule="nonzero"><g fill="#ffffff" fill-rule="nonzero" stroke="none" stroke-width="1" stroke-linecap="butt" stroke-linejoin="miter" stroke-miterlimit="10" stroke-dasharray="" stroke-dashoffset="0" font-family="none" font-weight="none" font-size="none" text-anchor="none" style="mix-blend-mode: normal"><g transform="scale(16,16)"><path d="M6.5,1c-0.82422,0 -1.5,0.67578 -1.5,1.5v0.5h-2.5c-0.85156,0 -1.5,0.75391 -1.5,1.60938v7.77734c0,0.85938 0.64844,1.61328 1.50391,1.61328h10.99219c0.85547,0 1.50391,-0.75781 1.50391,-1.61328v-7.77344c0,-0.85937 -0.64844,-1.61328 -1.5,-1.61328h-2.5v-0.5c0,-0.82422 -0.67578,-1.5 -1.5,-1.5zM6.5,2h3c0.28125,0 0.5,0.21875 0.5,0.5v0.5h-4v-0.5c0,-0.28125 0.21875,-0.5 0.5,-0.5zM2.5,4h11c0.25,0 0.5,0.24219 0.5,0.61328v2.38672h-12v-2.39062c0,-0.36719 0.25,-0.60937 0.5,-0.60937zM2,8h2v1h2v-1h4v1h2v-1h2v4.38672c0,0.37109 -0.25,0.61328 -0.50391,0.61328h-10.99219c-0.25391,0 -0.50391,-0.24219 -0.50391,-0.61328z"></path></g></g></svg>